<svg id="Layer_1" data-name="Layer 1" xmlns="http://www.w3.org/2000/svg" viewBox="0 0 184.8 132.59"><defs><style>.cls-1{fill:#ceae49;}.cls-2{fill:#adcb33;}.cls-3{fill:#7e8c2c;}.cls-4{fill:#f8de88;}.cls-5{fill:#fcecc0;}</style></defs><title>icon single nut</title><path class="cls-1" d="M187.5,118.42s-6.95-5.58-21.58-6.38c0,0-21,19.64-19.44,22.85s24.65,0,24.65,0S186.23,127.4,187.5,118.42Z" transform="translate(-7.6 -33.71)"/><path d="M153.58,137.17q-1.45,0-2.63-.07c-3.09-.19-4.7-0.76-5.24-1.82s0.18-2.85,2.45-5.82a99.23,99.23,0,0,1,6.82-7.78c5-5.27,10.31-10.21,10.36-10.26l0.27-.25,0.36,0c14.74,0.81,21.78,6.33,22.07,6.56l0.38,0.3-0.07.48c-1.32,9.32-16.2,16.8-16.84,17.12l-0.12.06-0.14,0c-0.06,0-5.86.81-11.79,1.21C157.24,137.1,155.27,137.17,153.58,137.17Zm12.66-24.26c-1.11,1-5.53,5.24-9.81,9.72-9.38,9.82-9.23,11.71-9.18,11.9s0.87,1.47,12.1.72c5.35-.36,10.61-1.05,11.53-1.18,1.38-.71,14.11-7.46,15.7-15.27a26.71,26.71,0,0,0-4.78-2.51A48.21,48.21,0,0,0,166.24,112.92Z" transform="translate(-7.6 -33.71)"/><path class="cls-2" d="M179.75,107s-2.2-4.81-20.85-12.23-25.46-10-25.46-10S19.59,98.41,15.79,107s3.61,11.43,10,13,133.9,9.62,133.9,9.62S175.74,117.86,179.75,107Z" transform="translate(-7.6 -33.71)"/><path d="M160,130.55l-0.31,0c-5.21-.33-127.64-8-134.05-9.65-4.43-1.11-9.2-2.74-11-6.41-1.06-2.16-.92-4.78.4-7.79,0.58-1.31,2.63-2.51,6.65-3.89a135.44,135.44,0,0,1,13.93-3.71c9.94-2.21,23.5-4.65,40.32-7.25,28.62-4.44,57.15-7.86,57.43-7.9l0.21,0,0.2,0.08c0.07,0,7,2.69,25.47,10,18.74,7.46,21.21,12.45,21.31,12.66l0.15,0.32-0.12.33c-1.71,4.61-5.66,9.9-11.74,15.7a100,100,0,0,1-8.6,7.34Zm-26.62-44.9c-2.65.32-29.87,3.63-57.17,7.86-16.78,2.6-30.31,5-40.21,7.23-16.48,3.66-19.05,5.85-19.4,6.62-1.13,2.56-1.27,4.64-.43,6.35,1.5,3.07,6.07,4.55,9.88,5.51,6.11,1.53,126.37,9.13,133.43,9.58,2-1.51,15.53-12,19.36-21.68a15.06,15.06,0,0,0-3.28-3c-2.6-1.87-7.64-4.88-16.93-8.58C141.86,88.94,134.59,86.13,133.34,85.65Z" transform="translate(-7.6 -33.71)"/><path class="cls-3" d="M137.26,86.71s16,6.47,14.9,8.25-9.91,2.29-17.39,3.47-52.38,4-58.44,5.1-29.22,5.63-29.22,5.63S26.85,115,25.18,118.49,8.72,119,11.11,114s8.2-9.36,11.4-10.61S131.55,87.36,137.26,86.71Z" transform="translate(-7.6 -33.71)"/><path d="M157.36,73.07l-0.91-1.44c0.34-.22,8.54-5.33,23-7.34L179.67,66C165.58,67.94,157.44,73,157.36,73.07Z" transform="translate(-7.6 -33.71)"/><path class="cls-4" d="M16,123.07S-5.26,114.45,23.6,80c0,0,16-38.69,57.93-43.1s53.52-6,98,28.26c0,0,10.82-2,11.83,5s-2.61,10.22-5.81,11.43-31.67,9.82-70,12.43S39.24,104,20,113.85c0,0,58.13.6,77.57,3.41s51.31,8.42,62.34,8.62,23.25,0.6,25.66-5,3.61-.2,2,2.61-12.43,20.45-24.86,26.26-17.24,7.62-19.84,11-47.11,12.43-84.19-10S33.22,134.29,26,130.08,16,123.07,16,123.07Z" transform="translate(-7.6 -33.71)"/><path d="M114.62,166.29H113.7c-14.31-.11-35.54-2.77-55.46-14.83-25.31-15.33-28-17.42-29.41-18.54a22.76,22.76,0,0,0-3.25-2.1,57.22,57.22,0,0,1-10.07-7,14,14,0,0,1-7.41-9.32c-1-3.92-.51-8.53,1.4-13.68,2.33-6.28,6.83-13.43,13.37-21.26a78.2,78.2,0,0,1,13.36-20A74.74,74.74,0,0,1,54.38,44.73,68.33,68.33,0,0,1,81.44,36l1.2-.13c20.35-2.14,33.8-3.56,47.52-.13,13.42,3.35,27.35,11.34,49.61,28.47,1.46-.22,6.69-0.78,9.91,1.54A6.09,6.09,0,0,1,192.22,70c1.22,8.53-4,11.48-6.36,12.34-4.13,1.55-32.93,9.94-70.2,12.48a424.12,424.12,0,0,0-54.84,7.2c-15.34,3.13-28.08,6.9-37.18,11,13.07,0.19,57.59,1,74,3.37,5.56,0.8,12.06,1.82,18.94,2.9,16.63,2.61,35.48,5.57,43.29,5.71l1,0c10.2,0.19,21.77.41,23.88-4.51,0.85-2,1.63-2.89,2.55-3a1.43,1.43,0,0,1,1.33.72c0.79,1.24.62,3.91-.35,5.6A99.85,99.85,0,0,1,179.86,136c-5.78,7.11-11.42,12-16.79,14.49L157.71,153c-8.31,3.83-12.1,5.58-14.16,8.28-1.24,1.62-7.09,2.88-9.56,3.35A107,107,0,0,1,114.62,166.29Zm-98-43.83s2.84,2.8,9.85,6.88a24.24,24.24,0,0,1,3.44,2.23c1.4,1.1,4,3.15,29.24,18.43,19.58,11.86,40.49,14.47,54.59,14.58,17.22,0.13,27.67-3.29,28.48-4.35,2.32-3,6.23-4.84,14.8-8.79l5.36-2.48c13-6.1,24.36-25.71,24.48-25.91a5.36,5.36,0,0,0,.5-3.6,6.87,6.87,0,0,0-1,1.76c-2.56,6-14.21,5.76-25.47,5.55l-1,0c-7.93-.14-26-3-43.53-5.73-6.88-1.08-13.37-2.1-18.92-2.9-19.17-2.77-76.88-3.39-77.46-3.4l-3.47,0,3.09-1.58c9.32-4.76,23.46-9.15,40.88-12.7a425.89,425.89,0,0,1,55.06-7.23c37.06-2.52,65.63-10.84,69.71-12.38,2.4-.9,6.27-3.46,5.27-10.51a4.39,4.39,0,0,0-1.83-3.11c-3.11-2.24-8.94-1.2-9-1.19l-0.37.07-0.3-.23c-22.23-17.12-36-25.08-49.28-28.39-13.43-3.36-26.76-2-46.93.17l-1.2.13a66.64,66.64,0,0,0-26.39,8.49A73,73,0,0,0,37.49,60.65,77.15,77.15,0,0,0,24.39,80.3l-0.05.12-0.08.1C9.69,97.91,8.33,108.35,9.75,114.05a12.32,12.32,0,0,0,6.56,8.23l0.16,0.06Z" transform="translate(-7.6 -33.71)"/><path class="cls-5" d="M28.13,83S48.28,50.83,65.72,46.62s33.7-12.33,58.49-3.91S125.55,61,125.55,61s-31-8.75-46.6,0-46.3,42.12-49.61,34.31S28.13,83,28.13,83Z" transform="translate(-7.6 -33.71)"/><path class="cls-1" d="M177.26,127.28c-1.5,1.59-6.73,5.21-14.73,8.64s-15.93,8.12-21.65,10.52-29.16,4.81-47.8,2.41-26.76-9.32-26.76-9.32c-12.7-2.06-19.61-1.45-23.31-.4,3.83,2.37,8.74,5.37,15.07,9.2,37.08,22.45,81.58,13.43,84.19,10s7.42-5.21,19.84-11c8.33-3.9,15.94-13.11,20.53-19.6C180.42,126.83,178,126.5,177.26,127.28Z" transform="translate(-7.6 -33.71)"/><path class="cls-5" d="M176.63,66.06s-9.26,1.5-17,2.69-11.94,1.49-11.94,1.49,3.41-1.49,4.54-2.09-1-4.78,4.69-4.78,9.91,3.48,19.73,2.69" transform="translate(-7.6 -33.71)"/></svg>